<svg width="14" height="8" viewBox="0 0 14 8" fill="none" xmlns="http://www.w3.org/2000/svg">
<path d="M8.0542 7.37079L13.7042 1.71079C13.7979 1.61783 13.8723 1.50723 13.9231 1.38537C13.9739 1.26351 14 1.1328 14 1.00079C14 0.868781 13.9739 0.738075 13.9231 0.616216C13.8723 0.494356 13.7979 0.383755 13.7042 0.290792C13.5168 0.104542 13.2634 -3.21984e-08 12.9992 -4.37463e-08C12.735 -5.52942e-08 12.4816 0.104541 12.2942 0.290792L7.2942 5.24079L2.3442 0.290792C2.15684 0.104541 1.90339 -5.2876e-07 1.6392 -5.40308e-07C1.37502 -5.51856e-07 1.12156 0.104541 0.934202 0.290792C0.839714 0.383407 0.764544 0.493852 0.713047 0.615727C0.66155 0.737602 0.634752 0.868485 0.634203 1.00079C0.634752 1.1331 0.66155 1.26398 0.713047 1.38586C0.764543 1.50773 0.839714 1.61818 0.934202 1.71079L6.5842 7.37079C6.67784 7.4723 6.79149 7.55331 6.91799 7.60871C7.04449 7.66412 7.1811 7.69272 7.3192 7.69272C7.4573 7.69272 7.59391 7.66412 7.72041 7.60871C7.84691 7.55331 7.96056 7.4723 8.0542 7.37079Z" fill="#2B2929"/>
</svg>
