<svg width="14" height="8" viewBox="0 0 14 8" fill="none" xmlns="http://www.w3.org/2000/svg">
<path d="M8.0542 0.629208L13.7042 6.28921C13.7979 6.38217 13.8723 6.49277 13.9231 6.61463C13.9739 6.73649 14 6.8672 14 6.99921C14 7.13122 13.9739 7.26193 13.9231 7.38378C13.8723 7.50564 13.7979 7.61624 13.7042 7.70921C13.5168 7.89546 13.2634 8 12.9992 8C12.735 8 12.4816 7.89546 12.2942 7.70921L7.2942 2.75921L2.3442 7.70921C2.15684 7.89546 1.90339 8 1.6392 8C1.37502 8 1.12156 7.89546 0.934202 7.70921C0.839714 7.61659 0.764544 7.50615 0.713047 7.38427C0.66155 7.2624 0.634752 7.13152 0.634203 6.99921C0.634752 6.8669 0.66155 6.73602 0.713047 6.61414C0.764543 6.49227 0.839714 6.38182 0.934202 6.28921L6.5842 0.629208C6.67784 0.527703 6.79149 0.446695 6.91799 0.391287C7.04449 0.33588 7.1811 0.307275 7.3192 0.307275C7.4573 0.307275 7.59391 0.33588 7.72041 0.391287C7.84691 0.446695 7.96056 0.527703 8.0542 0.629208Z" fill="#2B2929"/>
</svg>
